# xmcd
#
# Track frame offsets:
#	150
#	16336
#	38519
#	55622
#	80280
#	94905
#	115675
#	133789
#	146866
#	162153
#	181483
#	197193
#	215438
#	243572
#	267755
#	284883
#	307859
#	336530
#
# Disc length: 4648 seconds
#
# Revision: 2
# Processed by: cddbd v1.5.2PL0 Copyright (c) Steve Scherf et al.
# Submitted via: audiograbber 1.83.01
#
DISCID=09122612
DTITLE=Chip Taylor and Carrie Rodriguez - The New Bye and Bye
DYEAR=2010
DGENRE=Country
TTITLE0=Your Name Is On My Lips
TTITLE1=On An Island
TTITLE2=Play It Again Sam
TTITLE3=The New Bye and Bye
TTITLE4=Sweet Tequila Blues
TTITLE5=Him Who Saved Me
TTITLE6=Don't Speak In English
TTITLE7=All The Rain
TTITLE8=Let's Leave This Town
TTITLE9=Memphis, Texas
TTITLE10=Keep Your Hat On Jenny
TTITLE11=Must Be The Whiskey
TTITLE12=Big Moon Shinin'
TTITLE13=Laredo
TTITLE14=We Come Up Shining
TTITLE15=Angel Of The Morning [live]
TTITLE16=Wild Thing [live]
TTITLE17=The New Bye and Bye [reprise]
EXTD=
EXTT0=
EXTT1=
EXTT2=
EXTT3=
EXTT4=
EXTT5=
EXTT6=
EXTT7=
EXTT8=
EXTT9=
EXTT10=
EXTT11=
EXTT12=
EXTT13=
EXTT14=
EXTT15=
EXTT16=
EXTT17=
PLAYORDER=
